<svg xmlns="http://www.w3.org/2000/svg" xmlns:xlink="http://www.w3.org/1999/xlink" width="500" zoomAndPan="magnify" viewBox="0 0 375 374.999991" height="500" preserveAspectRatio="xMidYMid meet" version="1.0"><defs><g/><clipPath id="id1"><path d="M 112.5 112.5 L 262.5 112.5 L 262.5 262.5 L 112.5 262.5 Z M 112.5 112.5 " clip-rule="nonzero"/></clipPath></defs><rect x="-37.5" width="450" fill="#ffffff" y="-37.499999" height="449.999989" fill-opacity="1"/><rect x="-37.5" width="450" fill="#ffffff" y="-37.499999" height="449.999989" fill-opacity="1"/><rect x="-37.5" width="450" fill="#ffffff" y="-37.499999" height="449.999989" fill-opacity="1"/><g clip-path="url(#id1)"><path fill="#a3d165" d="M 210 262.5 L 165 262.5 C 164.507812 262.5 164.019531 262.453125 163.535156 262.355469 C 163.054688 262.261719 162.585938 262.117188 162.128906 261.929688 C 161.675781 261.742188 161.242188 261.507812 160.832031 261.234375 C 160.421875 260.960938 160.042969 260.652344 159.695312 260.304688 C 159.347656 259.953125 159.039062 259.578125 158.765625 259.167969 C 158.492188 258.757812 158.257812 258.324219 158.070312 257.871094 C 157.882812 257.414062 157.738281 256.945312 157.644531 256.464844 C 157.546875 255.980469 157.5 255.492188 157.5 255 L 157.5 217.5 L 120 217.5 C 119.507812 217.5 119.019531 217.453125 118.535156 217.355469 C 118.054688 217.261719 117.585938 217.117188 117.128906 216.929688 C 116.675781 216.742188 116.242188 216.507812 115.832031 216.234375 C 115.421875 215.960938 115.042969 215.652344 114.695312 215.304688 C 114.347656 214.953125 114.039062 214.578125 113.765625 214.167969 C 113.492188 213.757812 113.257812 213.324219 113.070312 212.871094 C 112.882812 212.414062 112.738281 211.945312 112.644531 211.464844 C 112.546875 210.980469 112.5 210.492188 112.5 210 L 112.5 165 C 112.5 164.507812 112.546875 164.019531 112.644531 163.535156 C 112.738281 163.054688 112.882812 162.585938 113.070312 162.128906 C 113.257812 161.675781 113.492188 161.242188 113.765625 160.832031 C 114.039062 160.421875 114.347656 160.042969 114.695312 159.695312 C 115.042969 159.347656 115.421875 159.039062 115.832031 158.765625 C 116.242188 158.492188 116.675781 158.257812 117.128906 158.070312 C 117.585938 157.882812 118.054688 157.738281 118.535156 157.644531 C 119.019531 157.546875 119.507812 157.5 120 157.5 L 157.5 157.5 L 157.5 120 C 157.5 119.507812 157.546875 119.019531 157.644531 118.535156 C 157.738281 118.054688 157.882812 117.585938 158.070312 117.128906 C 158.257812 116.675781 158.492188 116.242188 158.765625 115.832031 C 159.039062 115.421875 159.347656 115.042969 159.695312 114.695312 C 160.042969 114.347656 160.421875 114.039062 160.832031 113.765625 C 161.242188 113.492188 161.675781 113.257812 162.128906 113.070312 C 162.585938 112.882812 163.054688 112.738281 163.535156 112.644531 C 164.019531 112.546875 164.507812 112.5 165 112.5 L 210 112.5 C 210.492188 112.5 210.980469 112.546875 211.464844 112.644531 C 211.945312 112.738281 212.414062 112.882812 212.871094 113.070312 C 213.324219 113.257812 213.757812 113.492188 214.167969 113.765625 C 214.578125 114.039062 214.953125 114.347656 215.304688 114.695312 C 215.652344 115.042969 215.960938 115.421875 216.234375 115.832031 C 216.507812 116.242188 216.742188 116.675781 216.929688 117.128906 C 217.117188 117.585938 217.261719 118.054688 217.355469 118.535156 C 217.453125 119.019531 217.5 119.507812 217.5 120 L 217.5 157.5 L 255 157.5 C 255.492188 157.5 255.980469 157.546875 256.464844 157.644531 C 256.945312 157.738281 257.414062 157.882812 257.871094 158.070312 C 258.324219 158.257812 258.757812 158.492188 259.167969 158.765625 C 259.578125 159.039062 259.953125 159.347656 260.304688 159.695312 C 260.652344 160.042969 260.960938 160.421875 261.234375 160.832031 C 261.507812 161.242188 261.742188 161.675781 261.929688 162.128906 C 262.117188 162.585938 262.261719 163.054688 262.355469 163.535156 C 262.453125 164.019531 262.5 164.507812 262.5 165 L 262.5 210 C 262.5 210.492188 262.453125 210.980469 262.355469 211.464844 C 262.261719 211.945312 262.117188 212.414062 261.929688 212.871094 C 261.742188 213.324219 261.507812 213.757812 261.234375 214.167969 C 260.960938 214.578125 260.652344 214.953125 260.304688 215.304688 C 259.953125 215.652344 259.578125 215.960938 259.167969 216.234375 C 258.757812 216.507812 258.324219 216.742188 257.871094 216.929688 C 257.414062 217.117188 256.945312 217.261719 256.464844 217.355469 C 255.980469 217.453125 255.492188 217.5 255 217.5 L 217.5 217.5 L 217.5 255 C 217.5 255.492188 217.453125 255.980469 217.355469 256.464844 C 217.261719 256.945312 217.117188 257.414062 216.929688 257.871094 C 216.742188 258.324219 216.507812 258.757812 216.234375 259.167969 C 215.960938 259.578125 215.652344 259.953125 215.304688 260.304688 C 214.953125 260.652344 214.578125 260.960938 214.167969 261.234375 C 213.757812 261.507812 213.324219 261.742188 212.871094 261.929688 C 212.414062 262.117188 211.945312 262.261719 211.464844 262.355469 C 210.980469 262.453125 210.492188 262.5 210 262.5 Z M 172.5 247.5 L 202.5 247.5 L 202.5 210 C 202.5 209.507812 202.546875 209.019531 202.644531 208.535156 C 202.738281 208.054688 202.882812 207.585938 203.070312 207.128906 C 203.257812 206.675781 203.492188 206.242188 203.765625 205.832031 C 204.039062 205.421875 204.347656 205.042969 204.695312 204.695312 C 205.042969 204.347656 205.421875 204.039062 205.832031 203.765625 C 206.242188 203.492188 206.675781 203.257812 207.128906 203.070312 C 207.585938 202.882812 208.054688 202.738281 208.535156 202.644531 C 209.019531 202.546875 209.507812 202.5 210 202.5 L 247.5 202.5 L 247.5 172.5 L 210 172.5 C 209.507812 172.5 209.019531 172.453125 208.535156 172.355469 C 208.054688 172.261719 207.585938 172.117188 207.128906 171.929688 C 206.675781 171.742188 206.242188 171.507812 205.832031 171.234375 C 205.421875 170.960938 205.042969 170.652344 204.695312 170.304688 C 204.347656 169.953125 204.039062 169.578125 203.765625 169.167969 C 203.492188 168.757812 203.257812 168.324219 203.070312 167.871094 C 202.882812 167.414062 202.738281 166.945312 202.644531 166.464844 C 202.546875 165.980469 202.5 165.492188 202.5 165 L 202.5 127.5 L 172.5 127.5 L 172.5 165 C 172.5 165.492188 172.453125 165.980469 172.355469 166.464844 C 172.261719 166.945312 172.117188 167.414062 171.929688 167.871094 C 171.742188 168.324219 171.507812 168.757812 171.234375 169.167969 C 170.960938 169.578125 170.652344 169.953125 170.304688 170.304688 C 169.953125 170.652344 169.578125 170.960938 169.167969 171.234375 C 168.757812 171.507812 168.324219 171.742188 167.871094 171.929688 C 167.414062 172.117188 166.945312 172.261719 166.464844 172.355469 C 165.980469 172.453125 165.492188 172.5 165 172.5 L 127.5 172.5 L 127.5 202.5 L 165 202.5 C 165.492188 202.5 165.980469 202.546875 166.464844 202.644531 C 166.945312 202.738281 167.414062 202.882812 167.871094 203.070312 C 168.324219 203.257812 168.757812 203.492188 169.167969 203.765625 C 169.578125 204.039062 169.953125 204.347656 170.304688 204.695312 C 170.652344 205.042969 170.960938 205.421875 171.234375 205.832031 C 171.507812 206.242188 171.742188 206.675781 171.929688 207.128906 C 172.117188 207.585938 172.261719 208.054688 172.355469 208.535156 C 172.453125 209.019531 172.5 209.507812 172.5 210 Z M 172.5 247.5 " fill-opacity="1" fill-rule="nonzero"/></g><g fill="#000000" fill-opacity="1"><g transform="translate(56.82422, 303.699971)"><g><path d="M 2.964844 -29.558594 L 2.964844 0 L 5.925781 0 L 5.925781 -13.222656 L 23.023438 -13.222656 L 23.023438 0 L 25.949219 0 L 25.949219 -29.558594 L 23.023438 -29.558594 L 23.023438 -16.300781 L 5.925781 -16.300781 L 5.925781 -29.558594 Z M 2.964844 -29.558594 "/></g></g></g><g fill="#000000" fill-opacity="1"><g transform="translate(85.698325, 303.699971)"><g><path d="M 7.179688 -21.125 C 4.824219 -21.125 2.964844 -19.226562 2.964844 -16.871094 L 2.964844 -4.21875 C 2.964844 -1.863281 4.824219 0 7.179688 0 L 16.261719 0 C 18.617188 0 20.480469 -1.863281 20.480469 -4.21875 L 20.480469 -5.925781 L 17.742188 -5.925781 L 17.742188 -4.976562 C 17.742188 -3.722656 16.679688 -2.621094 15.425781 -2.621094 L 8.015625 -2.621094 C 6.761719 -2.621094 5.699219 -3.722656 5.699219 -4.976562 L 5.699219 -9.269531 L 20.480469 -9.269531 L 20.480469 -16.871094 C 20.480469 -19.226562 18.617188 -21.125 16.261719 -21.125 Z M 5.699219 -11.816406 L 5.699219 -16.109375 C 5.699219 -17.363281 6.761719 -18.503906 8.015625 -18.503906 L 15.425781 -18.503906 C 16.679688 -18.503906 17.742188 -17.363281 17.742188 -16.109375 L 17.742188 -11.816406 Z M 5.699219 -11.816406 "/></g></g></g><g fill="#000000" fill-opacity="1"><g transform="translate(109.063554, 303.699971)"><g><path d="M 7.179688 -21.125 C 4.863281 -21.125 2.964844 -19.1875 2.964844 -16.871094 L 2.964844 -15.425781 L 5.699219 -15.425781 L 5.699219 -16.109375 C 5.699219 -17.363281 6.761719 -18.503906 8.015625 -18.503906 L 14.550781 -18.503906 C 15.804688 -18.503906 16.871094 -17.363281 16.871094 -16.109375 L 16.871094 -12.652344 L 6.34375 -12.652344 C 3.988281 -12.652344 2.128906 -10.789062 2.128906 -8.433594 L 2.128906 -4.21875 C 2.128906 -1.863281 3.988281 0 6.34375 0 L 11.472656 0 C 13.945312 0 15.996094 -1.367188 16.871094 -3.457031 L 16.871094 0 L 19.644531 0 L 19.644531 -16.871094 C 19.644531 -19.226562 17.78125 -21.125 15.425781 -21.125 Z M 16.871094 -10.144531 L 16.871094 -7.257812 C 16.871094 -4.710938 14.78125 -2.621094 12.234375 -2.621094 L 7.179688 -2.621094 C 5.925781 -2.621094 4.863281 -3.722656 4.863281 -4.976562 L 4.863281 -7.828125 C 4.863281 -9.082031 5.925781 -10.144531 7.179688 -10.144531 Z M 16.871094 -10.144531 "/></g></g></g><g fill="#000000" fill-opacity="1"><g transform="translate(131.592953, 303.699971)"><g><path d="M 2.964844 -29.558594 L 2.964844 0 L 5.699219 0 L 5.699219 -29.558594 Z M 2.964844 -29.558594 "/></g></g></g><g fill="#000000" fill-opacity="1"><g transform="translate(140.179203, 303.699971)"><g><path d="M 3.152344 -29.292969 L 3.152344 -4.21875 C 3.152344 -1.863281 5.015625 0 7.371094 0 L 13.070312 0 L 13.070312 -2.621094 L 8.246094 -2.621094 C 6.992188 -2.621094 5.925781 -3.722656 5.925781 -4.976562 L 5.925781 -18.503906 L 13.070312 -18.503906 L 13.070312 -21.125 L 5.925781 -21.125 L 5.925781 -29.292969 Z M 3.152344 -29.292969 "/></g></g></g><g fill="#000000" fill-opacity="1"><g transform="translate(153.74243, 303.699971)"><g><path d="M 2.964844 -29.558594 L 2.964844 0 L 5.699219 0 L 5.699219 -13.832031 C 5.699219 -16.375 7.902344 -18.503906 10.523438 -18.503906 L 15.425781 -18.503906 C 16.679688 -18.503906 17.742188 -17.363281 17.742188 -16.109375 L 17.742188 0 L 20.480469 0 L 20.480469 -16.871094 C 20.480469 -19.226562 18.617188 -21.125 16.261719 -21.125 L 11.246094 -21.125 C 8.929688 -21.125 6.609375 -19.71875 5.699219 -17.476562 L 5.699219 -29.558594 Z M 2.964844 -29.558594 "/></g></g></g><g fill="#000000" fill-opacity="1"><g transform="translate(177.10766, 303.699971)"><g><path d="M 7.179688 -29.558594 C 4.824219 -29.558594 2.964844 -27.699219 2.964844 -25.34375 L 2.964844 -17.554688 C 2.964844 -15.199219 4.824219 -13.335938 7.179688 -13.335938 L 20.667969 -13.335938 C 21.921875 -13.335938 23.023438 -12.273438 23.023438 -11.019531 L 23.023438 -5.167969 C 23.023438 -3.914062 21.921875 -2.886719 20.667969 -2.886719 L 3.800781 -2.886719 L 3.800781 0 L 21.734375 0 C 24.089844 0 25.949219 -1.863281 25.949219 -4.21875 L 25.949219 -12.007812 C 25.949219 -14.363281 24.089844 -16.222656 21.734375 -16.222656 L 8.246094 -16.222656 C 6.992188 -16.222656 5.925781 -17.289062 5.925781 -18.542969 L 5.925781 -24.394531 C 5.925781 -25.648438 6.992188 -26.671875 8.246094 -26.671875 L 25.113281 -26.671875 L 25.113281 -29.558594 Z M 7.179688 -29.558594 "/></g></g></g><g fill="#000000" fill-opacity="1"><g transform="translate(205.981765, 303.699971)"><g><path d="M 0.417969 -21.125 L 8.585938 -0.226562 L 5.167969 8.433594 L 8.09375 8.433594 L 19.644531 -21.125 L 16.679688 -21.125 L 10.03125 -3.191406 L 3.34375 -21.125 Z M 0.417969 -21.125 "/></g></g></g><g fill="#000000" fill-opacity="1"><g transform="translate(225.965677, 303.699971)"><g><path d="M 7.179688 -21.125 C 4.824219 -21.125 2.964844 -19.226562 2.964844 -16.871094 L 2.964844 -13.527344 C 2.964844 -11.171875 4.824219 -9.269531 7.179688 -9.269531 L 15.425781 -9.269531 C 16.679688 -9.269531 17.742188 -8.207031 17.742188 -6.953125 L 17.742188 -4.976562 C 17.742188 -3.722656 16.679688 -2.621094 15.425781 -2.621094 L 8.015625 -2.621094 C 6.761719 -2.621094 5.699219 -3.722656 5.699219 -4.976562 L 5.699219 -5.773438 L 2.964844 -5.773438 L 2.964844 -4.21875 C 2.964844 -1.9375 4.902344 0 7.179688 0 L 16.261719 0 C 18.617188 0 20.480469 -1.863281 20.480469 -4.21875 L 20.480469 -7.484375 C 20.480469 -9.878906 18.617188 -11.816406 16.261719 -11.816406 L 8.015625 -11.816406 C 6.761719 -11.816406 5.699219 -12.878906 5.699219 -14.132812 L 5.699219 -16.109375 C 5.699219 -17.363281 6.761719 -18.503906 8.015625 -18.503906 L 15.425781 -18.503906 C 16.679688 -18.503906 17.742188 -17.363281 17.742188 -16.109375 L 17.742188 -15.3125 L 20.480469 -15.3125 L 20.480469 -16.871094 C 20.480469 -19.148438 18.542969 -21.125 16.261719 -21.125 Z M 7.179688 -21.125 "/></g></g></g><g fill="#000000" fill-opacity="1"><g transform="translate(249.330907, 303.699971)"><g><path d="M 3.152344 -29.292969 L 3.152344 -4.21875 C 3.152344 -1.863281 5.015625 0 7.371094 0 L 13.070312 0 L 13.070312 -2.621094 L 8.246094 -2.621094 C 6.992188 -2.621094 5.925781 -3.722656 5.925781 -4.976562 L 5.925781 -18.503906 L 13.070312 -18.503906 L 13.070312 -21.125 L 5.925781 -21.125 L 5.925781 -29.292969 Z M 3.152344 -29.292969 "/></g></g></g><g fill="#000000" fill-opacity="1"><g transform="translate(262.894123, 303.699971)"><g><path d="M 7.179688 -21.125 C 4.824219 -21.125 2.964844 -19.226562 2.964844 -16.871094 L 2.964844 -4.21875 C 2.964844 -1.863281 4.824219 0 7.179688 0 L 16.261719 0 C 18.617188 0 20.480469 -1.863281 20.480469 -4.21875 L 20.480469 -5.925781 L 17.742188 -5.925781 L 17.742188 -4.976562 C 17.742188 -3.722656 16.679688 -2.621094 15.425781 -2.621094 L 8.015625 -2.621094 C 6.761719 -2.621094 5.699219 -3.722656 5.699219 -4.976562 L 5.699219 -9.269531 L 20.480469 -9.269531 L 20.480469 -16.871094 C 20.480469 -19.226562 18.617188 -21.125 16.261719 -21.125 Z M 5.699219 -11.816406 L 5.699219 -16.109375 C 5.699219 -17.363281 6.761719 -18.503906 8.015625 -18.503906 L 15.425781 -18.503906 C 16.679688 -18.503906 17.742188 -17.363281 17.742188 -16.109375 L 17.742188 -11.816406 Z M 5.699219 -11.816406 "/></g></g></g><g fill="#000000" fill-opacity="1"><g transform="translate(286.25934, 303.699971)"><g><path d="M 2.964844 -21.125 L 2.964844 0 L 5.699219 0 L 5.699219 -13.527344 C 5.699219 -16.261719 7.789062 -18.503906 10.335938 -18.503906 L 12.273438 -18.503906 C 13.527344 -18.503906 14.628906 -17.363281 14.628906 -16.109375 L 14.628906 0 L 17.363281 0 L 17.363281 -13.832031 C 17.363281 -16.375 19.453125 -18.503906 22 -18.503906 L 23.976562 -18.503906 C 25.230469 -18.503906 26.292969 -17.363281 26.292969 -16.109375 L 26.292969 0 L 29.027344 0 L 29.027344 -16.871094 C 29.027344 -19.226562 27.167969 -21.125 24.8125 -21.125 L 22.453125 -21.125 C 20.136719 -21.125 18.199219 -19.679688 17.289062 -17.707031 C 16.871094 -19.679688 15.046875 -21.125 12.996094 -21.125 L 10.980469 -21.125 C 8.738281 -21.125 6.574219 -19.679688 5.699219 -17.324219 L 5.699219 -21.125 Z M 2.964844 -21.125 "/></g></g></g></svg>